<?xml version="1.0" encoding="UTF-8" standalone="no"?>
<svg width="368px" height="427px" viewBox="0 0 368 427" version="1.1" xmlns="http://www.w3.org/2000/svg" xmlns:xlink="http://www.w3.org/1999/xlink">
    <!-- Generator: Sketch 47.1 (45422) - http://www.bohemiancoding.com/sketch -->
    <title>go-health</title>
    <desc>Created with Sketch.</desc>
    <defs>
        <path d="M13.3789062,7.84960938 C23.2395833,10.5657552 31.1320875,12.8351957 37.0564187,14.6579308 C40.8508375,30.6190499 45.1811404,44.877393 50.0473275,57.4329602 L102.179674,95.9415791 C81.7421591,132.635261 70.5637782,150.949656 68.6445312,150.884766 C65.7656608,150.78743 68.6445312,155.867188 56.9695006,166.550781 C49.169521,168.167969 38.3105469,168.167969 24.3925781,166.550781 C24.6032447,148.674373 24.6032447,133.912654 24.3925781,122.265625 C23.8452793,92.0073596 19.0289915,66.7711341 17.6113281,55.7910156 C16.6914063,48.6660156 5.125,48.578125 0.298828125,45.4609375 C2.63671875,34.8476562 4.72416262,24.0711613 5.125,17.7675781 C5.43927869,12.82522 13.3789062,18.3498235 13.3789062,14.6579308 C13.3789062,10.557903 13.3789062,8.28846247 13.3789062,7.84960938 Z" id="path-1"></path>
        <path d="M49.776291,59.8408046 C57.8381907,35.8011015 61.8691406,21.7766927 61.8691406,17.7675781 C103.316557,22.5045573 174.846505,16.8873698 276.458984,0.916015625 C295.337011,51.406533 306.206803,84.594033 309.068359,100.478516 C312.847005,126.841797 311.19401,152.593099 304.109375,177.732422 C226.15155,179.932354 153.286967,177.168682 85.515625,169.441406 C73.0175781,162.414062 71.5234017,150.982101 68.6445312,150.884766 C66.7252843,150.819875 60.4358708,120.471888 49.776291,59.8408046 Z" id="path-2"></path>
        <polygon id="path-3" points="62.2552174 17.7095534 102.518358 19.7583238 73.9990823 31.825562 70.2013949 29.5580087 71.1747787 34.3677164 50.3592622 59.7809224"></polygon>
        <polygon id="path-4" points="4.96913754 10.5180053 39.2991375 10.5180053 38.4794802 45.0648336 7.79446784 49.1271045"></polygon>
        <rect id="path-5" x="258.784548" y="4.19522727" width="19" height="13" rx="6.5"></rect>
    </defs>
    <g id="Page-1" stroke="none" stroke-width="1" fill="none" fill-rule="evenodd">
        <g id="Gopher" transform="translate(1.000000, 1.000000)">
            <path d="M27.9456384,221.113891 C27.9456384,221.113891 39.4556384,221.523891 49.4356384,217.333891 C59.4156384,213.143891 73.0856384,209.333891 70.8256384,194.753891 C69.4356384,185.753891 47.9056384,190.403891 47.9056384,190.403891 C47.9056384,190.403891 32.1356384,196.203891 21.6356384,195.613891" id="Hand_1" stroke="#000000" stroke-width="3" fill="#F4D5B8" fill-rule="nonzero" transform="translate(46.354627, 205.163919) scale(-1, 1) translate(-46.354627, -205.163919) "></path>
            <path d="M145.174162,26.5838911 C145.174162,26.5838911 145.424162,0.333891114 159.424162,0.583891114 C173.424162,0.833891114 167.674162,31.0838911 167.674162,31.0838911" id="Ear_1" stroke="#000000" stroke-width="3" fill="#EE4A73" fill-rule="nonzero" transform="translate(157.008889, 15.833004) scale(-1, 1) translate(-157.008889, -15.833004) "></path>
            <path d="M129.588485,390.413891 C129.588485,390.413891 149.338485,424.533891 159.958485,417.853891 C170.578485,411.173891 146.268485,382.373891 146.268485,382.373891" id="Leg_1" stroke="#000000" stroke-width="3" fill="#F4D5B8" fill-rule="nonzero" transform="translate(146.116051, 400.547315) scale(-1, 1) translate(-146.116051, -400.547315) "></path>
            <path d="M356.915692,320.823891 C343.665692,319.323891 343.665692,317.573891 336.915692,319.323891 C330.165692,321.073891 311.915692,332.323891 318.915692,337.573891 C325.915692,342.823891 326.665692,344.573891 335.915692,343.073891 C345.165692,341.573891 364.415692,337.323891 364.415692,337.323891" id="Tail" stroke="#000000" stroke-width="3" fill="#F6D8BC" fill-rule="nonzero" transform="translate(340.879654, 331.091341) scale(-1, 1) rotate(9.000000) translate(-340.879654, -331.091341) "></path>
            <g id="Eye_R" transform="translate(57.903616, 107.023891) scale(-1, 1) translate(-57.903616, -107.023891) translate(10.903616, 62.023891)" fill-rule="nonzero">
                <ellipse id="Oval" fill="#FFFFFF" cx="46.87" cy="45.21" rx="45.3" ry="43"></ellipse>
                <path d="M90.67,45.21 C90.28,69.03 70.04,86.37 46.87,86.71 C23.7,87.05 3.45,68.52 3.07,45.21 C2.68,21.39 24.3,4.04 46.87,3.71 C70.04,3.37 90.29,21.9 90.67,45.21 C90.67,47.14 93.67,47.15 93.67,45.21 C93.32,23.73 77.72,6.42 57.07,1.77 C36.21,-2.92 13.96,7.47 4.37,26.53 C-5.13,45.42 1.84,67.75 18.07,80.28 C34.92,93.28 60.6,92.68 77,79.28 C87.3364075,70.989658 93.4460734,58.5284319 93.67,45.28 C93.7,43.28 90.7,43.28 90.67,45.21 Z" id="Shape" fill="#000000"></path>
                <ellipse id="Oval" stroke="#1D1D1B" fill="#000000" cx="80.51" cy="44.73" rx="11.67" ry="11.34"></ellipse>
                <ellipse id="Oval" stroke="#1D1D1B" fill="#FFFFFF" cx="79.63" cy="43.88" rx="3.71" ry="3.69"></ellipse>
            </g>
            <path d="M82.3693302,113.583891 C83.2793302,100.583891 104.36933,55.5838911 140.36933,39.5838911 C176.36933,23.5838911 190.36933,23.5838911 225.36933,20.5838911 C260.36933,17.5838911 313.36933,48.5838911 323.36933,61.5838911 C333.36933,74.5838911 340.36933,86.3838911 342.36933,103.983891 C344.36933,121.583891 344.36933,129.583891 347.36933,147.583891 C350.36933,165.583891 346.36933,234.583891 335.36933,260.583891 C328.09933,277.773891 316.88933,320.323891 292.48933,353.583891 C279.98933,370.583891 264.02933,385.173891 243.36933,392.583891 C182.36933,414.583891 146.36933,401.943891 137.36933,401.583891 C111.46933,400.583891 106.09933,393.113891 76.3693302,357.583891 C58.3693302,336.083891 55.5093302,310.343891 55.5093302,292.333891 C55.5093302,270.463891 85.5093302,218.583891 86.5093302,188.583891 C88.2793302,135.223891 79.8993302,148.913891 82.3693302,113.583891 Z" id="Body" stroke="#000000" stroke-width="3" fill="#EE4A73" fill-rule="nonzero" transform="translate(201.921473, 212.951141) scale(-1, 1) translate(-201.921473, -212.951141) "></path>
            <g id="Leg_2" transform="translate(280.903616, 404.523891) scale(-1, 1) translate(-280.903616, -404.523891) translate(265.903616, 385.023891)" stroke="#000000" stroke-width="3" fill-rule="nonzero">
                <path d="M4.06,5.09 C4.06,5.09 -6.44,36.84 9.56,38.59 C25.56,40.34 27.06,9.34 27.06,9.34" id="Shape" fill="#F4D5B8"></path>
                <path d="M0.83,0.72 C0.83,0.72 3.19,12.6 8.07,15.72 C8.07,15.72 8.95,7.22 9.78,6.89 C10.61,6.56 21.95,15.89 20.28,17.22 C18.61,18.55 29.97,11.32 29.96,8.02" id="Shape" fill="#EE4A73"></path>
            </g>
            <path d="M80.0008027,373.563891 C59.3308027,362.453891 58.8608027,345.813891 75.0008027,325.113891 C86.8708027,309.903891 100.330803,294.783891 107.730803,251.113891 C111.660803,227.903891 134.550803,200.543891 155.730803,202.113891 C176.910803,203.683891 186.940803,226.273891 179.160803,247.863891 C171.380803,269.453891 143.100803,352.393891 122.710803,363.113891 C122.710803,363.113891 98.7908027,383.673891 80.0008027,373.563891 Z" id="Belly" fill="#F194AA" fill-rule="nonzero" transform="translate(122.702209, 289.204539) scale(-1, 1) translate(-122.702209, -289.204539) "></path>
            <g id="Eye_L" transform="translate(170.403616, 118.023891) scale(-1, 1) translate(-170.403616, -118.023891) translate(113.903616, 65.023891)" fill-rule="nonzero">
                <ellipse id="Oval" fill="#FFFFFF" cx="56.7" cy="52.56" rx="54.47" ry="51"></ellipse>
                <path d="M109.67,52.56 C109.32,77.56 90.17,96.83 66.25,101.27 C41.83,105.79 15.83,92.35 6.72,69.01 C-2.28,45.84 9.72,20.82 30.72,9.39 C52.72,-2.55 81.19,2.86 97.72,21.3 C105.32066,29.9468389 109.54296,41.0476862 109.61,52.56 C109.61,53.3884271 110.281573,54.06 111.11,54.06 C111.938427,54.06 112.61,53.3884271 112.61,52.56 C112.31,31.09 98.77,12.82 79.23,4.56 C59.23,-3.92 35.63,-0.01 19.02,13.73 C2.73973406,27.4153281 -3.31772954,49.7788935 3.83,69.81 C10.99,89.81 30.42,102.51 50.96,104.81 C82.15,108.26 112.23,84.55 112.67,52.59 C112.678284,51.7615729 112.013427,51.0832843 111.185,51.075 C110.356573,51.0667157 109.678284,51.7315729 109.67,52.56 Z" id="Shape" fill="#1D1D1B"></path>
                <ellipse id="Oval" stroke="#1D1D1B" fill="#000000" cx="72.57" cy="45.22" rx="17.67" ry="16"></ellipse>
                <ellipse id="Oval" stroke="#1D1D1B" fill="#FFFFFF" cx="67.9" cy="40.57" rx="4.67" ry="4.65"></ellipse>
            </g>
            <g id="Ear_2" transform="translate(275.903616, 43.023891) scale(-1, 1) translate(-275.903616, -43.023891) translate(250.903616, 18.023891)" fill-rule="nonzero">
                <path d="M23.56,49.56 L3.89,24.56 C3.89,24.56 -5.94,8.65 9.39,2.36 C24.72,-3.93 35.22,8.23 36.06,9.36 C36.9,10.49 49.23,29.19 49.23,29.19" id="Shape" stroke="#000000" stroke-width="3" fill="#EE4A73"></path>
                <path d="M21.06,17.72 C21.06,17.72 20.96,26.72 25.01,30.72 C29.06,34.72 32.73,37.55 34.73,36.05 C36.73,34.55 31.23,23.55 28.9,22.22 C26.57,20.89 25.06,17.22 21.06,17.72 Z" id="Shape" fill="#030405"></path>
                <path d="M19.56,17.72 C19.56,22.21 20.42,27.22 23.16,30.87 C24.5,32.66 33.79,41.87 36.22,36.59 C37.94,32.87 34.43,27.31 32.55,24.26 C31.36,22.33 29.9,21.33 28.3,19.82 C26.08,17.72 24.3,16.07 21.05,16.22 C19.12,16.31 19.11,19.31 21.05,19.22 C23.82,19.1 27.51,22.45 29.21,24.68 C31.1734992,27.3421081 32.6155321,30.3517157 33.46,33.55 C34.3,36.7 29.71,32.97 29,32.39 C26.7486307,30.756144 24.9798028,28.5451092 23.88,25.99 C22.9364707,23.3371589 22.4824407,20.5350489 22.54,17.72 C22.4522127,16.9635464 21.8115304,16.3929162 21.05,16.3929162 C20.2884696,16.3929162 19.6477873,16.9635464 19.56,17.72 Z" id="Shape" fill="#1D1D1B"></path>
            </g>
            <g id="Coat" transform="translate(41.000000, 173.000000)">
                <g id="Rectangle-2">
                    <use fill="#FFFFFF" fill-rule="evenodd" xlink:href="#path-1"></use>
                    <path stroke="#979797" stroke-width="1" d="M13.8789062,8.50608794 C13.8789062,8.76053229 13.8789062,9.12868307 13.8789062,9.88082956 L13.8789062,14.6579308 C13.8789062,15.7164329 13.3212891,16.3277067 12.3515835,16.4818293 C11.7208556,16.5820757 11.1830396,16.5300304 9.67802102,16.2967221 C9.45663369,16.2624026 9.31889516,16.2414521 9.17518924,16.2205487 C6.66457175,15.8553543 5.72858972,16.1544035 5.62399217,17.7993084 C5.26562061,23.4350727 3.57151558,32.8953782 0.863260877,45.2223972 C2.00763186,45.9010754 3.48190753,46.4402549 6.15767942,47.2477746 C6.38263463,47.3156637 6.6336193,47.390981 7.11496265,47.5353542 C7.50824211,47.6534751 7.79836076,47.7412481 8.08415333,47.8288901 C14.6170587,49.83229 17.5949563,51.759456 18.107212,55.7269911 C18.3361519,57.5001816 20.5653676,72.2411398 21.3274282,77.9235454 C23.3802679,93.2308154 24.6261974,107.533829 24.8924964,122.256583 C25.1014896,133.811096 25.1032492,148.427238 24.8978211,166.105686 C38.4726756,167.656371 49.0879817,167.648524 56.7334248,166.088869 C60.3660667,162.750914 62.8066031,159.761545 64.4138575,156.95765 C65.0098938,155.91785 65.4619605,154.959795 65.8701602,153.931205 C66.0023119,153.598207 66.5288951,152.169545 66.6629888,151.860636 C67.1222572,150.802627 67.6638909,150.351324 68.6614268,150.385051 C70.2346772,150.438243 81.7455902,131.588473 101.528848,96.0824508 L49.6335498,57.7489326 L49.5811181,57.61365 C44.7345885,45.1088023 40.4198196,30.9216658 36.6362362,15.0518952 C30.8770726,13.2846577 23.2910288,11.1026288 13.8789062,8.5060894 Z"></path>
                </g>
                <g id="Rectangle-2-Copy">
                    <use fill="#FFFFFF" fill-rule="evenodd" xlink:href="#path-2"></use>
                    <path stroke="#979797" stroke-width="1" d="M50.2907336,59.8793277 C55.6093849,90.1277859 59.8384887,112.826491 62.9776324,127.973642 C65.9170242,142.15694 68.1330304,150.367186 68.6614268,150.385051 C69.1044441,150.40003 69.5141553,150.59505 69.9084443,150.94742 C70.6349833,151.596719 70.3523841,151.128974 72.8444901,155.509703 C74.4533403,158.337808 75.8498088,160.416941 77.7111662,162.520361 C79.931496,165.029436 82.5371486,167.180351 85.6730129,168.956108 C153.284905,176.65972 225.969766,179.422119 303.727465,177.242964 C310.709125,152.283357 312.324501,126.720426 308.57628,100.567163 C305.729189,84.7629755 294.912558,51.7198169 276.133507,1.47328305 C175.12905,17.3342655 103.876713,22.9532581 62.3485525,18.3248616 C62.0302223,23.0252039 58.0200306,36.8250211 50.2907336,59.8793277 Z"></path>
                </g>
                <g id="Rectangle-5">
                    <use fill="#FFFFFF" fill-rule="evenodd" xlink:href="#path-3"></use>
                    <path stroke="#979797" stroke-width="1" d="M62.6278977,18.2291639 L51.4935502,57.6070224 L70.6376613,34.2343984 L69.487088,28.5491573 L74.0377315,31.2662915 L100.316793,20.1469451 L62.6278977,18.2291639 Z"></path>
                </g>
                <ellipse id="Oval-4" stroke="#979797" fill="#D0D0D0" cx="64" cy="84" rx="6" ry="7"></ellipse>
                <ellipse id="Oval-4-Copy-2" stroke="#979797" fill="#D0D0D0" cx="72" cy="123" rx="6" ry="7"></ellipse>
            </g>
            <g id="Hand_2" transform="translate(215.773578, 258.600657) scale(-1, 1) rotate(-37.000000) translate(-215.773578, -258.600657) translate(194.273578, 227.100657)">
                <path d="M12.08,21.09 C12.08,21.09 10.13,31.48 12.08,41.22 C14.03,50.96 19.87,65.22 31.56,62.65 C43.25,60.08 36.75,42.85 36.75,42.85 C36.75,42.85 33.18,28.85 35.13,19.48" id="Shape" stroke="#000000" stroke-width="3" fill="#F4D5B8" fill-rule="nonzero"></path>
                <g id="Rectangle-3" transform="translate(22.134138, 29.822555) rotate(-6.000000) translate(-22.134138, -29.822555) ">
                    <use fill="#FFFFFF" fill-rule="evenodd" xlink:href="#path-4"></use>
                    <path stroke="#979797" stroke-width="1" d="M5.50706342,11.0180053 L8.25444055,48.561848 L37.9897678,44.6253022 L38.7871338,11.0180053 L5.50706342,11.0180053 Z"></path>
                </g>
                <rect id="Rectangle-7" fill="#FFFFFF" transform="translate(21.500000, 7.210000) rotate(-6.000000) translate(-21.500000, -7.210000) " x="1" y="2.42" width="41" height="9.58"></rect>
            </g>
            <g id="scope" transform="translate(0.000000, 126.000000)">
                <path d="M259.835964,10.4432111 C269.072836,13.9706999 275.445555,17.1439831 278.862699,19.8600285 C281.39022,21.8689754 281.625302,22.6177524 280.973467,23.3334301 C260.932329,45.3374609 232.116246,62.6823732 197.737049,75.8513651 C174.603752,84.7126018 152.190753,90.5319345 134.016703,93.7971241 C111.771114,97.7938153 80.1094299,94.8942916 70.9028765,86.3362079 C63.3425298,79.3083791 59.7730058,75.2595511 56.8223618,69.6191776 C53.074658,62.4551659 51.4096518,53.7523077 51.9823235,42.0433665 C52.2420155,36.733659 53.9194893,30.7405556 57.0464827,24.0762175 L51.6146958,21.527553 C48.1763108,28.8555378 46.2906619,35.5923874 45.9894869,41.7502634 C45.3671154,54.4753764 47.2342767,64.234884 51.5058866,72.400381 C54.8583326,78.8088284 58.7899171,83.2683332 66.8178274,90.7307924 C77.8167273,100.954978 111.127473,104.00552 135.077688,99.7025715 C153.595208,96.3756735 176.359934,90.4650182 199.883287,81.45437 C235.06229,67.9790114 264.643025,50.1738417 285.409345,27.3736012 C288.903181,23.5375681 287.496906,19.0583413 282.596041,15.1629913 C278.584799,11.9747398 271.742105,8.5674331 261.976536,4.83803892 L259.835964,10.4432111 Z" id="metal_1" stroke="#727272" fill="#BCBCBC" fill-rule="nonzero"></path>
                <path d="M150.813877,93.3454437 C143.652356,95.0282777 138.022285,96.1255057 134.547196,96.7498478 C115.506315,100.170774 80.2762611,99.1453223 68.860352,88.5335002 C61.1278561,81.3456477 54.5404732,75.7719405 51.4083032,64.0617076" id="rubber_1" stroke="#404040" stroke-width="8"></path>
                <path d="M82.6873513,97.8731244 C82.6873513,97.8731244 75.0748663,195.37652 49.1571644,183.706353 C31.8786964,175.926242 22.7429749,139.808629 21.75,75.3535156" id="rubber_2" stroke="#404040" stroke-width="8"></path>
                <ellipse id="Oval-2" stroke="#979797" fill="#D8D8D8" cx="15" cy="75.5" rx="15" ry="21.5"></ellipse>
                <ellipse id="Oval-2-Copy" stroke="#979797" fill="#EFEAEA" cx="14.5" cy="75.5" rx="13.5" ry="19.5"></ellipse>
                <g id="Rectangle-4" transform="translate(268.284548, 10.695227) rotate(28.000000) translate(-268.284548, -10.695227) ">
                    <use fill="#7D7D7D" fill-rule="evenodd" xlink:href="#path-5"></use>
                    <rect stroke="#525252" stroke-width="1" x="259.284548" y="4.69522727" width="18" height="12" rx="6"></rect>
                </g>
            </g>
            <g id="Nose" transform="translate(80.403616, 138.523891) scale(-1, 1) translate(-80.403616, -138.523891) translate(46.903616, 100.023891)" fill-rule="nonzero">
                <ellipse id="Oval" fill="#9B8E7D" cx="38.81" cy="15.04" rx="18.33" ry="13.18"></ellipse>
                <path d="M55.64,15.04 C54.71,30.8 22.91,30.8 21.97,15.04 C21.48,6.76 32.53,3.55 38.8,3.36 C45.8,3.14 55.16,7.04 55.63,15.04 C55.74,16.96 58.74,16.97 58.63,15.04 C57.47,-4.62 20.13,-4.62 18.96,15.04 C18.37,25.04 30.89,29.48 38.79,29.72 C47.64,29.99 58.05,24.72 58.62,15.04 C58.75,13.09 55.75,13.09 55.64,15.04 Z" id="Shape" fill="#000000"></path>
                <path d="M25.34,46.09 L25.34,70.84 C25.34,70.84 23.96,74.28 33.61,74.77 C43.26,75.26 44.36,74.77 44.36,74.77 C44.36,74.77 49.36,76.41 51.25,68.38 C53.14,60.35 58.14,45.27 58.14,45.27 L25.34,46.09 Z" id="Shape" fill="#FFFFFF"></path>
                <path d="M23.83,46.09 L23.83,68.09 C23.83,70.09 23.42,70.77 23.96,72.43 C25.11,75.96 30.71,76.13 33.6,76.35 C36.97,76.6 41.37,77.24 44.73,76.35 C43.16,76.79 45.66,76.53 46.22,76.46 C47.788239,76.1909103 49.2077077,75.3676184 50.22,74.14 C53.69,70.42 54.22,62.79 55.67,58.06 C56.9033333,53.9533333 58.19,49.8633333 59.53,45.79 C59.6508202,45.3381124 59.5553944,44.8557447 59.2716166,44.4838979 C58.9878388,44.1120511 58.5477526,43.8927136 58.08,43.89 L25.27,44.71 C23.34,44.71 23.33,47.71 25.27,47.71 L58.08,46.89 L56.63,44.99 C54.12,52.62 51.63,60.3 49.74,68.1 C49.17,70.43 48.03,73.48 45.2,73.53 C44.74,73.53 44.34,73.29 43.88,73.45 C41.51,74.31 37.78,73.57 35.36,73.45 C33.19,73.37 26.77,73.5 26.77,70.88 L26.77,46.09 C26.6280423,45.3909028 26.0133645,44.8884962 25.3,44.8884962 C24.5866355,44.8884962 23.9719577,45.3909028 23.83,46.09 Z" id="Shape" fill="#000000"></path>
                <path d="M37.66,24.71 C37.66,24.71 29.26,20.71 20.59,22.92 C11.92,25.13 1.76,34.09 2.59,42.75 C3.42,51.41 12.26,57.25 17.59,57.42 C19.59,57.48 24.31,59.25 35.33,59.25 C45.18,59.25 46.83,58.32 52.66,58.08 C60.13,57.78 65.42,52.08 65.26,41.58 C65.1,31.08 57.93,25.75 50.26,26.25 C45.9984714,26.6263168 41.7054482,26.101614 37.66,24.71 L37.66,24.71 Z" id="Shape" fill="#F4D5B8"></path>
                <path d="M38.42,23.42 C24.64,17.17 4.23,23.54 1.2,39.88 C-0.13,47.03 5.34,53.61 11.1,56.96 C15.85,59.73 23.2,60.04 28.56,60.51 C37.02,61.25 45.36,60.16 53.77,59.51 C60.96,58.95 65.19,52.99 66.43,46.39 C67.79,39.11 65.7,31.51 59.57,27.12 C53.44,22.73 44.93,25.97 38.07,23.27 C36.27,22.56 35.49,25.46 37.27,26.16 C41.74,27.92 46.7,27.85 51.41,27.73 C60.02,27.49 63.82,35.73 63.75,43.13 C63.67,50.79 59.26,56.26 51.56,56.65 C45.49,56.95 39.56,57.8 33.46,57.74 C22.97,57.64 8.59,56.58 4.56,45 C1.72,36.84 10.04,29.58 16.33,26.15 C22.62,22.72 30.6,23.15 36.92,26.01 C38.65,26.8 40.18,24.22 38.42,23.42 Z" id="Shape" fill="#000000"></path>
            </g>
        </g>
    </g>
</svg>