<?xml version="1.0" encoding="UTF-8" standalone="no"?>
<svg width="368px" height="427px" viewBox="0 0 368 427" version="1.1" xmlns="http://www.w3.org/2000/svg" xmlns:xlink="http://www.w3.org/1999/xlink">
    <!-- Generator: Sketch 47.1 (45422) - http://www.bohemiancoding.com/sketch -->
    <title>go-health</title>
    <desc>Created with Sketch.</desc>
    <defs>
        <path d="M13.3789062,7.84960938 C23.2395833,10.5657552 31.1320875,12.8351957 37.0564187,14.6579308 C40.8508375,30.6190499 45.1811404,44.877393 50.0473275,57.4329602 L102.179674,95.9415791 C81.7421591,132.635261 70.5637782,150.949656 68.6445312,150.884766 C65.7656608,150.78743 68.6445312,155.867188 56.9695006,166.550781 C49.169521,168.167969 38.3105469,168.167969 24.3925781,166.550781 C24.6032447,148.674373 24.6032447,133.912654 24.3925781,122.265625 C23.8452793,92.0073596 19.0289915,66.7711341 17.6113281,55.7910156 C16.6914063,48.6660156 5.125,48.578125 0.298828125,45.4609375 C2.63671875,34.8476562 4.72416262,24.0711613 5.125,17.7675781 C5.43927869,12.82522 13.3789062,18.3498235 13.3789062,14.6579308 C13.3789062,10.557903 13.3789062,8.28846247 13.3789062,7.84960938 Z" id="path-1"></path>
        <polygon id="path-2" points="14 8.21302362 36.8396045 15.0259117 55.7380967 68.7802843 29.3479912 29.423631 31.7584129 25.1490229 26.2237374 25.1490229"></polygon>
        <path d="M49.776291,59.8408046 C57.8381907,35.8011015 61.8691406,21.7766927 61.8691406,17.7675781 C103.316557,22.5045573 174.846505,16.8873698 276.458984,0.916015625 C295.337011,51.406533 306.206803,84.594033 309.068359,100.478516 C312.847005,126.841797 311.19401,152.593099 304.109375,177.732422 C226.15155,179.932354 153.286967,177.168682 85.515625,169.441406 C73.0175781,162.414062 71.5234017,150.982101 68.6445312,150.884766 C66.7252843,150.819875 60.4358708,120.471888 49.776291,59.8408046 Z" id="path-3"></path>
        <polygon id="path-4" points="62.2552174 17.7095534 102.518358 19.7583238 73.9990823 31.825562 70.2013949 29.5580087 71.1747787 34.3677164 50.3592622 59.7809224"></polygon>
        <polygon id="path-5" points="4.96913754 10.5180053 39.2991375 10.5180053 38.4794802 45.0648336 7.79446784 49.1271045"></polygon>
        <rect id="path-6" x="258.784548" y="4.19522727" width="19" height="13" rx="6.5"></rect>
    </defs>
    <g id="Page-1" stroke="none" stroke-width="1" fill="none" fill-rule="evenodd">
        <g id="Gopher" transform="translate(1.000000, 1.000000)">
            <path d="M27.9456384,221.113891 C27.9456384,221.113891 39.4556384,221.523891 49.4356384,217.333891 C59.4156384,213.143891 73.0856384,209.333891 70.8256384,194.753891 C69.4356384,185.753891 47.9056384,190.403891 47.9056384,190.403891 C47.9056384,190.403891 32.1356384,196.203891 21.6356384,195.613891" id="Hand_1" stroke="#000000" stroke-width="3" fill="#F4D5B8" fill-rule="nonzero" transform="translate(46.354627, 205.163919) scale(-1, 1) translate(-46.354627, -205.163919) "></path>
            <path d="M145.174162,26.5838911 C145.174162,26.5838911 145.424162,0.333891114 159.424162,0.583891114 C173.424162,0.833891114 167.674162,31.0838911 167.674162,31.0838911" id="Ear_1" stroke="#000000" stroke-width="3" fill="#EE4A73" fill-rule="nonzero" transform="translate(157.008889, 15.833004) scale(-1, 1) translate(-157.008889, -15.833004) "></path>
            <path d="M129.588485,390.413891 C129.588485,390.413891 149.338485,424.533891 159.958485,417.853891 C170.578485,411.173891 146.268485,382.373891 146.268485,382.373891" id="Leg_1" stroke="#000000" stroke-width="3" fill="#F4D5B8" fill-rule="nonzero" transform="translate(146.116051, 400.547315) scale(-1, 1) translate(-146.116051, -400.547315) "></path>
            <path d="M356.915692,320.823891 C343.665692,319.323891 343.665692,317.573891 336.915692,319.323891 C330.165692,321.073891 311.915692,332.323891 318.915692,337.573891 C325.915692,342.823891 326.665692,344.573891 335.915692,343.073891 C345.165692,341.573891 364.415692,337.323891 364.415692,337.323891" id="Tail" stroke="#000000" stroke-width="3" fill="#F6D8BC" fill-rule="nonzero" transform="translate(340.879654, 331.091341) scale(-1, 1) rotate(9.000000) translate(-340.879654, -331.091341) "></path>
            <g id="Eye_R" transform="translate(57.903616, 107.023891) scale(-1, 1) translate(-57.903616, -107.023891) translate(10.903616, 62.023891)" fill-rule="nonzero">
                <ellipse id="Oval" fill="#FFFFFF" cx="46.87" cy="45.21" rx="45.3" ry="43"></ellipse>
                <path d="M90.67,45.21 C90.28,69.03 70.04,86.37 46.87,86.71 C23.7,87.05 3.45,68.52 3.07,45.21 C2.68,21.39 24.3,4.04 46.87,3.71 C70.04,3.37 90.29,21.9 90.67,45.21 C90.67,47.14 93.67,47.15 93.67,45.21 C93.32,23.73 77.72,6.42 57.07,1.77 C36.21,-2.92 13.96,7.47 4.37,26.53 C-5.13,45.42 1.84,67.75 18.07,80.28 C34.92,93.28 60.6,92.68 77,79.28 C87.3364075,70.989658 93.4460734,58.5284319 93.67,45.28 C93.7,43.28 90.7,43.28 90.67,45.21 Z" id="Shape" fill="#000000"></path>
                <ellipse id="Oval" stroke="#1D1D1B" fill="#000000" cx="80.51" cy="44.73" rx="11.67" ry="11.34"></ellipse>
                <ellipse id="Oval" stroke="#1D1D1B" fill="#FFFFFF" cx="79.63" cy="43.88" rx="3.71" ry="3.69"></ellipse>
            </g>
            <path d="M82.3693302,113.583891 C83.2793302,100.583891 104.36933,55.5838911 140.36933,39.5838911 C176.36933,23.5838911 190.36933,23.5838911 225.36933,20.5838911 C260.36933,17.5838911 313.36933,48.5838911 323.36933,61.5838911 C333.36933,74.5838911 340.36933,86.3838911 342.36933,103.983891 C344.36933,121.583891 344.36933,129.583891 347.36933,147.583891 C350.36933,165.583891 346.36933,234.583891 335.36933,260.583891 C328.09933,277.773891 316.88933,320.323891 292.48933,353.583891 C279.98933,370.583891 264.02933,385.173891 243.36933,392.583891 C182.36933,414.583891 146.36933,401.943891 137.36933,401.583891 C111.46933,400.583891 106.09933,393.113891 76.3693302,357.583891 C58.3693302,336.083891 55.5093302,310.343891 55.5093302,292.333891 C55.5093302,270.463891 85.5093302,218.583891 86.5093302,188.583891 C88.2793302,135.223891 79.8993302,148.913891 82.3693302,113.583891 Z" id="Body" stroke="#000000" stroke-width="3" fill="#EE4A73" fill-rule="nonzero" transform="translate(201.921473, 212.951141) scale(-1, 1) translate(-201.921473, -212.951141) "></path>
            <g id="Leg_2" transform="translate(280.903616, 404.523891) scale(-1, 1) translate(-280.903616, -404.523891) translate(265.903616, 385.023891)" stroke="#000000" stroke-width="3" fill-rule="nonzero">
                <path d="M4.06,5.09 C4.06,5.09 -6.44,36.84 9.56,38.59 C25.56,40.34 27.06,9.34 27.06,9.34" id="Shape" fill="#F4D5B8"></path>
                <path d="M0.83,0.72 C0.83,0.72 3.19,12.6 8.07,15.72 C8.07,15.72 8.95,7.22 9.78,6.89 C10.61,6.56 21.95,15.89 20.28,17.22 C18.61,18.55 29.97,11.32 29.96,8.02" id="Shape" fill="#EE4A73"></path>
            </g>
            <path d="M80.0008027,373.563891 C59.3308027,362.453891 58.8608027,345.813891 75.0008027,325.113891 C86.8708027,309.903891 100.330803,294.783891 107.730803,251.113891 C111.660803,227.903891 134.550803,200.543891 155.730803,202.113891 C176.910803,203.683891 186.940803,226.273891 179.160803,247.863891 C171.380803,269.453891 143.100803,352.393891 122.710803,363.113891 C122.710803,363.113891 98.7908027,383.673891 80.0008027,373.563891 Z" id="Belly" fill="#F194AA" fill-rule="nonzero" transform="translate(122.702209, 289.204539) scale(-1, 1) translate(-122.702209, -289.204539) "></path>
            <g id="Eye_L" transform="translate(170.403616, 118.023891) scale(-1, 1) translate(-170.403616, -118.023891) translate(113.903616, 65.023891)" fill-rule="nonzero">
                <ellipse id="Oval" fill="#FFFFFF" cx="56.7" cy="52.56" rx="54.47" ry="51"></ellipse>
                <path d="M109.67,52.56 C109.32,77.56 90.17,96.83 66.25,101.27 C41.83,105.79 15.83,92.35 6.72,69.01 C-2.28,45.84 9.72,20.82 30.72,9.39 C52.72,-2.55 81.19,2.86 97.72,21.3 C105.32066,29.9468389 109.54296,41.0476862 109.61,52.56 C109.61,53.3884271 110.281573,54.06 111.11,54.06 C111.938427,54.06 112.61,53.3884271 112.61,52.56 C112.31,31.09 98.77,12.82 79.23,4.56 C59.23,-3.92 35.63,-0.01 19.02,13.73 C2.73973406,27.4153281 -3.31772954,49.7788935 3.83,69.81 C10.99,89.81 30.42,102.51 50.96,104.81 C82.15,108.26 112.23,84.55 112.67,52.59 C112.678284,51.7615729 112.013427,51.0832843 111.185,51.075 C110.356573,51.0667157 109.678284,51.7315729 109.67,52.56 Z" id="Shape" fill="#1D1D1B"></path>
                <ellipse id="Oval" stroke="#1D1D1B" fill="#000000" cx="72.57" cy="45.22" rx="17.67" ry="16"></ellipse>
                <ellipse id="Oval" stroke="#1D1D1B" fill="#FFFFFF" cx="67.9" cy="40.57" rx="4.67" ry="4.65"></ellipse>
            </g>
            <g id="Ear_2" transform="translate(275.903616, 43.023891) scale(-1, 1) translate(-275.903616, -43.023891) translate(250.903616, 18.023891)" fill-rule="nonzero">
                <path d="M23.56,49.56 L3.89,24.56 C3.89,24.56 -5.94,8.65 9.39,2.36 C24.72,-3.93 35.22,8.23 36.06,9.36 C36.9,10.49 49.23,29.19 49.23,29.19" id="Shape" stroke="#000000" stroke-width="3" fill="#EE4A73"></path>
                <path d="M21.06,17.72 C21.06,17.72 20.96,26.72 25.01,30.72 C29.06,34.72 32.73,37.55 34.73,36.05 C36.73,34.55 31.23,23.55 28.9,22.22 C26.57,20.89 25.06,17.22 21.06,17.72 Z" id="Shape" fill="#030405"></path>
                <path d="M19.56,17.72 C19.56,22.21 20.42,27.22 23.16,30.87 C24.5,32.66 33.79,41.87 36.22,36.59 C37.94,32.87 34.43,27.31 32.55,24.26 C31.36,22.33 29.9,21.33 28.3,19.82 C26.08,17.72 24.3,16.07 21.05,16.22 C19.12,16.31 19.11,19.31 21.05,19.22 C23.82,19.1 27.51,22.45 29.21,24.68 C31.1734992,27.3421081 32.6155321,30.3517157 33.46,33.55 C34.3,36.7 29.71,32.97 29,32.39 C26.7486307,30.756144 24.9798028,28.5451092 23.88,25.99 C22.9364707,23.3371589 22.4824407,20.5350489 22.54,17.72 C22.4522127,16.9635464 21.8115304,16.3929162 21.05,16.3929162 C20.2884696,16.3929162 19.6477873,16.9635464 19.56,17.72 Z" id="Shape" fill="#1D1D1B"></path>
            </g>
            <g id="Coat" transform="translate(41.000000, 173.000000)">
                <g id="Rectangle-2">
                    <use fill="#FFFFFF" fill-rule="evenodd" xlink:href="#path-1"></use>
                    <path stroke="#979797" stroke-width="1" d="M13.8789062,8.50608794 C13.8789062,8.76053229 13.8789062,9.12868307 13.8789062,9.88082956 L13.8789062,14.6579308 C13.8789062,15.7164329 13.3212891,16.3277067 12.3515835,16.4818293 C11.7208556,16.5820757 11.1830396,16.5300304 9.67802102,16.2967221 C9.45663369,16.2624026 9.31889516,16.2414521 9.17518924,16.2205487 C6.66457175,15.8553543 5.72858972,16.1544035 5.62399217,17.7993084 C5.26562061,23.4350727 3.57151558,32.8953782 0.863260877,45.2223972 C2.00763186,45.9010754 3.48190753,46.4402549 6.15767942,47.2477746 C6.38263463,47.3156637 6.6336193,47.390981 7.11496265,47.5353542 C7.50824211,47.6534751 7.79836076,47.7412481 8.08415333,47.8288901 C14.6170587,49.83229 17.5949563,51.759456 18.107212,55.7269911 C18.3361519,57.5001816 20.5653676,72.2411398 21.3274282,77.9235454 C23.3802679,93.2308154 24.6261974,107.533829 24.8924964,122.256583 C25.1014896,133.811096 25.1032492,148.427238 24.8978211,166.105686 C38.4726756,167.656371 49.0879817,167.648524 56.7334248,166.088869 C60.3660667,162.750914 62.8066031,159.761545 64.4138575,156.95765 C65.0098938,155.91785 65.4619605,154.959795 65.8701602,153.931205 C66.0023119,153.598207 66.5288951,152.169545 66.6629888,151.860636 C67.1222572,150.802627 67.6638909,150.351324 68.6614268,150.385051 C70.2346772,150.438243 81.7455902,131.588473 101.528848,96.0824508 L49.6335498,57.7489326 L49.5811181,57.61365 C44.7345885,45.1088023 40.4198196,30.9216658 36.6362362,15.0518952 C30.8770726,13.2846577 23.2910288,11.1026288 13.8789062,8.5060894 Z"></path>
                </g>
                <g id="Rectangle-6">
                    <use fill="#FFFFFF" fill-rule="evenodd" xlink:href="#path-2"></use>
                    <path stroke="#979797" stroke-width="1" d="M15.2657322,9.11235302 L26.4794887,24.6490229 L32.6143749,24.6490229 L29.9347905,29.4009604 L53.9603799,65.2313131 L36.4524413,15.4321944 L15.2657322,9.11235302 Z"></path>
                </g>
                <g id="Rectangle-2-Copy">
                    <use fill="#FFFFFF" fill-rule="evenodd" xlink:href="#path-3"></use>
                    <path stroke="#979797" stroke-width="1" d="M50.2907336,59.8793277 C55.6093849,90.1277859 59.8384887,112.826491 62.9776324,127.973642 C65.9170242,142.15694 68.1330304,150.367186 68.6614268,150.385051 C69.1044441,150.40003 69.5141553,150.59505 69.9084443,150.94742 C70.6349833,151.596719 70.3523841,151.128974 72.8444901,155.509703 C74.4533403,158.337808 75.8498088,160.416941 77.7111662,162.520361 C79.931496,165.029436 82.5371486,167.180351 85.6730129,168.956108 C153.284905,176.65972 225.969766,179.422119 303.727465,177.242964 C310.709125,152.283357 312.324501,126.720426 308.57628,100.567163 C305.729189,84.7629755 294.912558,51.7198169 276.133507,1.47328305 C175.12905,17.3342655 103.876713,22.9532581 62.3485525,18.3248616 C62.0302223,23.0252039 58.0200306,36.8250211 50.2907336,59.8793277 Z"></path>
                </g>
                <g id="Rectangle-5">
                    <use fill="#FFFFFF" fill-rule="evenodd" xlink:href="#path-4"></use>
                    <path stroke="#979797" stroke-width="1" d="M62.6278977,18.2291639 L51.4935502,57.6070224 L70.6376613,34.2343984 L69.487088,28.5491573 L74.0377315,31.2662915 L100.316793,20.1469451 L62.6278977,18.2291639 Z"></path>
                </g>
                <ellipse id="Oval-4-Copy-2" stroke="#979797" fill="#D0D0D0" cx="71" cy="123" rx="6" ry="7"></ellipse>
                <ellipse id="Oval-4" stroke="#979797" fill="#D0D0D0" cx="64" cy="84" rx="6" ry="7"></ellipse>
            </g>
            <g id="Hand_2" transform="translate(215.773578, 258.600657) scale(-1, 1) rotate(-37.000000) translate(-215.773578, -258.600657) translate(194.273578, 227.100657)">
                <path d="M12.08,21.09 C12.08,21.09 10.13,31.48 12.08,41.22 C14.03,50.96 19.87,65.22 31.56,62.65 C43.25,60.08 36.75,42.85 36.75,42.85 C36.75,42.85 33.18,28.85 35.13,19.48" id="Shape" stroke="#000000" stroke-width="3" fill="#F4D5B8" fill-rule="nonzero"></path>
                <g id="Rectangle-3" transform="translate(22.134138, 29.822555) rotate(-6.000000) translate(-22.134138, -29.822555) ">
                    <use fill="#FFFFFF" fill-rule="evenodd" xlink:href="#path-5"></use>
                    <path stroke="#979797" stroke-width="1" d="M5.50706342,11.0180053 L8.25444055,48.561848 L37.9897678,44.6253022 L38.7871338,11.0180053 L5.50706342,11.0180053 Z"></path>
                </g>
                <rect id="Rectangle-7" fill="#FFFFFF" transform="translate(21.500000, 7.210000) rotate(-6.000000) translate(-21.500000, -7.210000) " x="1" y="2.42" width="41" height="9.58"></rect>
            </g>
            <g id="scope" transform="translate(0.000000, 126.000000)">
                <path d="M259.835964,10.4432111 C269.072836,13.9706999 275.445555,17.1439831 278.862699,19.8600285 C281.39022,21.8689754 281.625302,22.6177524 280.973467,23.3334301 C260.932329,45.3374609 232.116246,62.6823732 197.737049,75.8513651 C174.603752,84.7126018 152.190753,90.5319345 134.016703,93.7971241 C111.771114,97.7938153 80.1094299,94.8942916 70.9028765,86.3362079 C63.3425298,79.3083791 59.7730058,75.2595511 56.8223618,69.6191776 C53.074658,62.4551659 51.4096518,53.7523077 51.9823235,42.0433665 C52.2420155,36.733659 53.9194893,30.7405556 57.0464827,24.0762175 L51.6146958,21.527553 C48.1763108,28.8555378 46.2906619,35.5923874 45.9894869,41.7502634 C45.3671154,54.4753764 47.2342767,64.234884 51.5058866,72.400381 C54.8583326,78.8088284 58.7899171,83.2683332 66.8178274,90.7307924 C77.8167273,100.954978 111.127473,104.00552 135.077688,99.7025715 C153.595208,96.3756735 176.359934,90.4650182 199.883287,81.45437 C235.06229,67.9790114 264.643025,50.1738417 285.409345,27.3736012 C288.903181,23.5375681 287.496906,19.0583413 282.596041,15.1629913 C278.584799,11.9747398 271.742105,8.5674331 261.976536,4.83803892 L259.835964,10.4432111 Z" id="metal_1" stroke="#727272" fill="#BCBCBC" fill-rule="nonzero"></path>
                <path d="M150.813877,93.3454437 C143.652356,95.0282777 138.022285,96.1255057 134.547196,96.7498478 C115.506315,100.170774 80.2762611,99.1453223 68.860352,88.5335002 C61.1278561,81.3456477 54.5404732,75.7719405 51.4083032,64.0617076" id="rubber_1" stroke="#404040" stroke-width="8"></path>
                <path d="M82.6873513,97.8731244 C82.6873513,97.8731244 75.0748663,195.37652 49.1571644,183.706353 C31.8786964,175.926242 22.7429749,139.808629 21.75,75.3535156" id="rubber_2" stroke="#404040" stroke-width="8"></path>
                <ellipse id="Oval-2" stroke="#979797" fill="#D8D8D8" cx="15" cy="75.5" rx="15" ry="21.5"></ellipse>
                <ellipse id="Oval-2-Copy" stroke="#979797" fill="#EFEAEA" cx="14.5" cy="75.5" rx="13.5" ry="19.5"></ellipse>
                <g id="Rectangle-4" transform="translate(268.284548, 10.695227) rotate(28.000000) translate(-268.284548, -10.695227) ">
                    <use fill="#7D7D7D" fill-rule="evenodd" xlink:href="#path-6"></use>
                    <rect stroke="#525252" stroke-width="1" x="259.284548" y="4.69522727" width="18" height="12" rx="6"></rect>
                </g>
            </g>
            <g id="Nose" transform="translate(80.403616, 138.523891) scale(-1, 1) translate(-80.403616, -138.523891) translate(46.903616, 100.023891)" fill-rule="nonzero">
                <ellipse id="Oval" fill="#9B8E7D" cx="38.81" cy="15.04" rx="18.33" ry="13.18"></ellipse>
                <path d="M55.64,15.04 C54.71,30.8 22.91,30.8 21.97,15.04 C21.48,6.76 32.53,3.55 38.8,3.36 C45.8,3.14 55.16,7.04 55.63,15.04 C55.74,16.96 58.74,16.97 58.63,15.04 C57.47,-4.62 20.13,-4.62 18.96,15.04 C18.37,25.04 30.89,29.48 38.79,29.72 C47.64,29.99 58.05,24.72 58.62,15.04 C58.75,13.09 55.75,13.09 55.64,15.04 Z" id="Shape" fill="#000000"></path>
                <path d="M25.34,46.09 L25.34,70.84 C25.34,70.84 23.96,74.28 33.61,74.77 C43.26,75.26 44.36,74.77 44.36,74.77 C44.36,74.77 49.36,76.41 51.25,68.38 C53.14,60.35 58.14,45.27 58.14,45.27 L25.34,46.09 Z" id="Shape" fill="#FFFFFF"></path>
                <path d="M23.83,46.09 L23.83,68.09 C23.83,70.09 23.42,70.77 23.96,72.43 C25.11,75.96 30.71,76.13 33.6,76.35 C36.97,76.6 41.37,77.24 44.73,76.35 C43.16,76.79 45.66,76.53 46.22,76.46 C47.788239,76.1909103 49.2077077,75.3676184 50.22,74.14 C53.69,70.42 54.22,62.79 55.67,58.06 C56.9033333,53.9533333 58.19,49.8633333 59.53,45.79 C59.6508202,45.3381124 59.5553944,44.8557447 59.2716166,44.4838979 C58.9878388,44.1120511 58.5477526,43.8927136 58.08,43.89 L25.27,44.71 C23.34,44.71 23.33,47.71 25.27,47.71 L58.08,46.89 L56.63,44.99 C54.12,52.62 51.63,60.3 49.74,68.1 C49.17,70.43 48.03,73.48 45.2,73.53 C44.74,73.53 44.34,73.29 43.88,73.45 C41.51,74.31 37.78,73.57 35.36,73.45 C33.19,73.37 26.77,73.5 26.77,70.88 L26.77,46.09 C26.6280423,45.3909028 26.0133645,44.8884962 25.3,44.8884962 C24.5866355,44.8884962 23.9719577,45.3909028 23.83,46.09 Z" id="Shape" fill="#000000"></path>
                <path d="M37.66,24.71 C37.66,24.71 29.26,20.71 20.59,22.92 C11.92,25.13 1.76,34.09 2.59,42.75 C3.42,51.41 12.26,57.25 17.59,57.42 C19.59,57.48 24.31,59.25 35.33,59.25 C45.18,59.25 46.83,58.32 52.66,58.08 C60.13,57.78 65.42,52.08 65.26,41.58 C65.1,31.08 57.93,25.75 50.26,26.25 C45.9984714,26.6263168 41.7054482,26.101614 37.66,24.71 L37.66,24.71 Z" id="Shape" fill="#F4D5B8"></path>
                <path d="M38.42,23.42 C24.64,17.17 4.23,23.54 1.2,39.88 C-0.13,47.03 5.34,53.61 11.1,56.96 C15.85,59.73 23.2,60.04 28.56,60.51 C37.02,61.25 45.36,60.16 53.77,59.51 C60.96,58.95 65.19,52.99 66.43,46.39 C67.79,39.11 65.7,31.51 59.57,27.12 C53.44,22.73 44.93,25.97 38.07,23.27 C36.27,22.56 35.49,25.46 37.27,26.16 C41.74,27.92 46.7,27.85 51.41,27.73 C60.02,27.49 63.82,35.73 63.75,43.13 C63.67,50.79 59.26,56.26 51.56,56.65 C45.49,56.95 39.56,57.8 33.46,57.74 C22.97,57.64 8.59,56.58 4.56,45 C1.72,36.84 10.04,29.58 16.33,26.15 C22.62,22.72 30.6,23.15 36.92,26.01 C38.65,26.8 40.18,24.22 38.42,23.42 Z" id="Shape" fill="#000000"></path>
            </g>
        </g>
        <g id="Credit" transform="translate(97.000000, 325.000000)" fill="#FFB2C6">
            <path d="M60.4573345,75.9647819 C60.679361,76.0012407 60.7930945,75.9195909 60.8295533,75.6975645 L61.0030972,74.6407184 C61.0395561,74.418692 60.9579063,74.3049584 60.7358798,74.2684996 L58.9507869,73.9753708 C58.5777825,73.91412 58.4309176,73.7531954 58.4790433,73.4601205 L58.8261311,71.3464285 C58.8757151,71.0444725 59.0677888,70.9300842 59.4407933,70.991335 L61.2258862,71.2844638 C61.4479127,71.3209226 61.5616462,71.2392728 61.598105,71.0172464 L61.7745656,69.9426382 C61.8110244,69.7206118 61.7293746,69.6068782 61.5073482,69.5704194 L59.3403698,69.2145815 C57.8483519,68.9695783 57.0608364,69.4330956 56.8566671,70.6764439 L56.4031195,73.4384532 C56.2004085,74.6729204 56.7983382,75.3639407 58.2903561,75.6089439 L60.4573345,75.9647819 Z M66.4189975,76.9015383 C66.6414381,76.9353788 66.7542018,76.8523948 66.7880423,76.6299542 L66.9491231,75.571137 C66.9829637,75.3486964 66.8999796,75.2359327 66.677539,75.2020922 L64.8891166,74.9300144 C64.5154164,74.8731623 64.3666659,74.7139792 64.4113354,74.4203576 L64.7334971,72.3027231 C64.7795202,72.0002039 64.970233,71.8835607 65.3439332,71.9404128 L67.1323556,72.2124905 C67.3547962,72.246331 67.4675599,72.163347 67.5014004,71.9409064 L67.6651885,70.8642939 C67.699029,70.6418533 67.616045,70.5290896 67.3936044,70.4952491 L65.2225842,70.1649657 C63.7277834,69.9375574 62.9457834,70.4103205 62.7562765,71.6559878 L62.3353004,74.4231489 C62.1471471,75.6599186 62.7531764,76.3438466 64.2479772,76.5712549 L66.4189975,76.9015383 Z M68.5415145,75.373788 C68.3180362,75.3476647 68.2082114,75.4345009 68.1820881,75.6579792 L68.0598309,76.7038579 C68.0337076,76.9273363 68.1205438,77.037161 68.3440222,77.0632843 L71.1687885,77.3934832 C72.3129976,77.5272346 72.9688112,77.0330348 73.0764393,76.112304 L73.1809327,75.2183906 C73.2728868,74.4317468 73.0438405,73.9881537 72.2061171,73.7905546 C72.6192927,73.6666881 72.7930872,73.342675 72.8463788,72.8867792 L72.9069849,72.3683094 C72.998939,71.5816656 72.5826362,71.0346318 71.5903923,70.9186442 L69.096374,70.6271079 C68.8728956,70.6009846 68.7630709,70.6878208 68.7369476,70.9112991 L68.6126005,71.9750561 C68.5864772,72.1985344 68.6733134,72.3083592 68.8967918,72.3344825 L70.5594707,72.52884 C70.845523,72.5622779 70.8845287,72.6936954 70.8678098,72.8367215 L70.8521358,72.9708085 C70.8354168,73.1138347 70.767153,73.2327129 70.4811007,73.1992751 L69.5424916,73.0895571 C69.3190133,73.0634338 69.2091885,73.15027 69.1830652,73.3737483 L69.0712574,74.3302357 C69.0451341,74.553714 69.1319703,74.6635388 69.3554486,74.6896621 L70.8751014,74.8673007 C71.1611537,74.9007386 71.2012043,75.0232169 71.1844854,75.166243 L71.1562722,75.4075997 C71.1395533,75.5506258 71.0712894,75.6695041 70.7852371,75.6360662 L68.5415145,75.373788 Z M82.3959966,76.4225475 C82.3285745,77.5184755 81.744277,78.2219245 79.4985228,78.0837644 C77.2527686,77.9456044 76.7501211,77.175286 76.8175432,76.0793579 L77.0059935,73.0161492 C77.0734156,71.9202212 77.6672488,71.2083419 79.913003,71.3465019 C82.1587571,71.4846619 82.651869,72.2634107 82.5844469,73.3593388 L82.3959966,76.4225475 Z M78.8765831,75.8814186 C78.8616618,76.1239601 78.9584052,76.3102521 79.6051824,76.3500422 C80.2609426,76.3903849 80.3708086,76.2168036 80.3857299,75.9742622 L80.5343901,73.5578307 C80.5487587,73.3242723 80.4609983,73.1385329 79.8052381,73.0981902 C79.1584609,73.0584001 79.0396119,73.2314287 79.0252433,73.4649872 L78.8765831,75.8814186 Z M85.9830983,73.1957349 L85.9657247,74.3476039 L86.640648,74.3577837 C86.9556121,74.3625343 87.0393175,74.1837763 87.0429823,73.940804 L87.0475971,73.6348388 C87.0512618,73.3918664 86.9729857,73.2106653 86.6580215,73.2059147 L85.9830983,73.1957349 Z M85.5858405,78.0502959 L84.1999981,78.0293934 C83.9750237,78.0260001 83.877528,77.9255183 83.8809213,77.7005439 L83.9688748,71.8692072 C83.9722681,71.6442328 84.0727499,71.5467371 84.2977243,71.5501303 L87.2943834,71.5953287 C88.6442299,71.6156883 89.0579521,72.233998 89.0445148,73.1248967 L89.0382711,73.5388496 C89.0306702,74.0427923 88.8992553,74.4008511 88.5188552,74.557132 C89.1746946,74.6390322 89.5994517,75.122493 89.5880504,75.878407 L89.5592754,77.78619 C89.5558822,78.0111644 89.4554004,78.1086601 89.230426,78.1052669 L87.8355846,78.0842286 C87.6106102,78.0808353 87.5131145,77.9803535 87.5165078,77.7553791 L87.5372746,76.3785357 C87.5413465,76.1085664 87.4531212,75.9902224 87.2011499,75.986422 L85.9412932,75.9674197 L85.91469,77.7312191 C85.9112967,77.9561935 85.8108149,78.0536892 85.5858405,78.0502959 Z M91.1903375,77.9370732 L95.0226412,77.8230363 C95.2475417,77.816344 95.3435533,77.7144432 95.3368609,77.4895427 L95.3050056,76.4190166 C95.2983133,76.1941161 95.1964125,76.0981045 94.971512,76.1047968 L94.0988983,76.130763 L94.0089537,73.1081009 L94.8815674,73.0821348 C95.1064679,73.0754424 95.2024795,72.9735416 95.1957871,72.7486412 L95.1633964,71.660123 C95.1567041,71.4352225 95.0548033,71.339211 94.8299028,71.3459033 L90.9975991,71.4599402 C90.7726987,71.4666325 90.6766871,71.5685333 90.6833794,71.7934337 L90.7157702,72.8819519 C90.7224625,73.1068524 90.8243633,73.2028639 91.0492637,73.1961716 L91.9398695,73.1696701 L92.0298141,76.1923322 L91.1392083,76.2188337 C90.9143079,76.225526 90.8182963,76.3274268 90.8249886,76.5523273 L90.856844,77.6228534 C90.8635363,77.8477539 90.9654371,77.9437655 91.1903375,77.9370732 Z M101.817169,77.3307616 C102.041714,77.3164498 102.134216,77.2113531 102.119904,76.9868088 L101.943011,74.2114404 C101.928699,73.986896 101.823603,73.8943937 101.599058,73.9087054 L100.206883,73.9974383 C99.9823388,74.0117501 99.8898365,74.1168468 99.9041482,74.3413911 L99.9934536,75.742548 L99.1222214,75.7980776 C98.8437864,75.8158242 98.7004727,75.6896846 98.6810087,75.3843043 L98.5441884,73.2376601 C98.5247244,72.9322798 98.6862186,72.7776944 99.0634531,72.7536507 L100.931662,72.6345769 C101.156207,72.6202651 101.248709,72.5151684 101.234397,72.290624 L101.165128,71.2038293 C101.150817,70.9792849 101.04572,70.8867826 100.821175,70.9010943 L98.5757318,71.0442119 C97.0667936,71.1403869 96.4034258,71.7688549 96.4829991,73.0173216 L96.6616099,75.8196353 C96.7411832,77.068102 97.4789722,77.6072647 98.9879104,77.5110897 L101.817169,77.3307616 Z M107.590727,71.7156346 L107.723998,72.8598998 L108.394466,72.7818114 C108.707351,72.7453701 108.766984,72.5572081 108.738872,72.3158396 L108.703472,72.0118942 C108.67536,71.7705257 108.57408,71.6011049 108.261195,71.6375461 L107.590727,71.7156346 Z M107.831139,76.5804858 L106.454445,76.7408274 C106.230956,76.7668568 106.121168,76.6799745 106.095138,76.4564852 L105.420454,70.6636426 C105.394425,70.4401533 105.481307,70.330365 105.704797,70.3043356 L108.681674,69.957623 C110.02261,69.8014462 110.51357,70.3604017 110.616647,71.2454193 L110.664541,71.6566396 C110.722847,72.1572557 110.63934,72.5294151 110.282619,72.7340569 C110.943537,72.7295674 111.427819,73.1533881 111.515278,73.9043122 L111.736008,75.7995014 C111.762038,76.0229907 111.675155,76.132779 111.451666,76.1588084 L110.066032,76.3201912 C109.842543,76.3462206 109.732755,76.2593383 109.706725,76.035849 L109.547425,74.6680945 C109.51619,74.3999073 109.413259,74.2941047 109.162951,74.3232577 L107.911411,74.4690227 L108.115482,76.2211788 C108.141511,76.4446681 108.054629,76.5544564 107.831139,76.5804858 Z M115.170788,75.4860597 C115.393118,75.4515 115.475737,75.3384686 115.441177,75.1161386 L115.160553,73.3108189 C115.124611,73.0795957 115.012962,73.00587 114.790632,73.0404296 L112.994205,73.3196714 C112.771875,73.354231 112.687874,73.4583693 112.723816,73.6895925 L113.00444,75.4949121 C113.039,75.7172421 113.152031,75.7998611 113.374361,75.7653015 L115.170788,75.4860597 Z M121.040059,74.3943108 C121.261158,74.3525972 121.340088,74.2369594 121.298375,74.01586 L120.969672,72.2735961 L122.508524,71.9832696 C122.729623,71.941556 122.808553,71.8259182 122.76684,71.6048188 L122.566614,70.5435413 C122.524901,70.3224418 122.409263,70.243512 122.188164,70.2852256 L120.649311,70.5755522 L120.475783,69.6557784 L122.730997,69.2302998 C122.952097,69.1885862 123.031027,69.0729485 122.989313,68.851849 L122.790756,67.7994155 C122.749043,67.578316 122.633405,67.4993862 122.412306,67.5410998 L118.467891,68.2852702 C118.246792,68.3269838 118.167862,68.4426216 118.209575,68.663721 L119.290791,74.3946193 C119.332505,74.6157188 119.448143,74.6946486 119.669242,74.652935 L121.040059,74.3943108 Z M126.183148,68.308908 L126.430199,69.4341057 L127.089495,69.2893493 C127.397166,69.2217963 127.43768,69.0286134 127.385567,68.791267 L127.319944,68.4923864 C127.267832,68.25504 127.150115,68.0965986 126.842444,68.1641516 L126.183148,68.308908 Z M126.908933,73.1253188 L125.555179,73.422552 C125.335414,73.4708041 125.217486,73.3953384 125.169234,73.1755732 L123.918539,67.4792599 C123.870287,67.2594947 123.945752,67.1415671 124.165518,67.093315 L127.09279,66.4505965 C128.411381,66.1610837 128.955785,66.668131 129.146863,67.5384011 L129.235647,67.942769 C129.343732,68.435043 129.297867,68.8136885 128.963403,69.052983 C129.620558,68.9824116 130.144802,69.3556697 130.306929,70.0940806 L130.716107,71.9576893 C130.764359,72.1774545 130.688893,72.2953821 130.469128,72.3436342 L129.106584,72.6427975 C128.886819,72.6910496 128.768891,72.6155839 128.720639,72.3958187 L128.425336,71.0508558 C128.367434,70.7871376 128.254437,70.6921606 128.0083,70.746203 L126.777615,71.0164149 L127.155911,72.7393739 C127.204163,72.9591391 127.128698,73.0770667 126.908933,73.1253188 Z M136.525832,70.7151103 L132.479256,71.7467102 C132.26123,71.8022921 132.140842,71.7308164 132.08526,71.5127897 L130.644577,65.8615369 C130.588995,65.6435102 130.660471,65.5231224 130.878498,65.4675405 L134.925074,64.4359406 C135.143101,64.3803587 135.263488,64.4518344 135.31907,64.6698612 L135.579194,65.6902262 C135.634776,65.908253 135.5633,66.0286408 135.345273,66.0842227 L132.938258,66.6978467 L133.10945,67.3693691 L134.810059,66.9358303 C135.028085,66.8802484 135.148473,66.9517241 135.204055,67.1697509 L135.441946,68.1029053 C135.497527,68.320932 135.426052,68.4413198 135.208025,68.4969017 L133.507417,68.9304404 L133.698618,69.6804524 L136.105633,69.0668283 C136.32366,69.0112464 136.444048,69.0827221 136.49963,69.3007488 L136.759753,70.3211139 C136.815335,70.5391406 136.743859,70.6595284 136.525832,70.7151103 Z M139.881925,69.6995691 L138.583708,70.0698857 C138.367339,70.1316051 138.24498,70.0635592 138.183261,69.8471898 L136.583493,64.2388953 C136.521773,64.0225259 136.589819,63.9001669 136.806189,63.8384474 L137.706285,63.5816945 C137.931309,63.5175063 138.087067,63.5385893 138.283574,63.6697156 L140.510669,65.1121329 L139.984819,63.2686657 C139.9231,63.0522964 139.991146,62.9299373 140.207515,62.8682178 L141.505732,62.4979012 C141.722101,62.4361818 141.84446,62.5042277 141.90618,62.7205971 L143.505947,68.3288916 C143.567667,68.545261 143.499621,68.66762 143.283252,68.7293395 L141.985035,69.0996561 C141.768666,69.1613756 141.646307,69.0933296 141.584587,68.8769602 L141.280928,67.8124228 L139.289924,66.4430453 L140.104621,69.2991212 C140.16634,69.5154905 140.098294,69.6378496 139.881925,69.6995691 Z M149.271058,66.749753 L147.178631,67.4162107 C145.737944,67.8750832 144.891513,67.5307223 144.511851,66.338725 L143.662391,63.6717383 C143.279997,62.4711655 143.771348,61.7007088 145.212035,61.2418363 L147.304462,60.5753787 C147.51885,60.5070941 147.643226,60.5713796 147.71151,60.7857676 L148.042008,61.8234055 C148.110292,62.0377935 148.046007,62.1621694 147.831619,62.230454 L146.107939,62.7794622 C145.747768,62.8941803 145.628535,63.0832849 145.721402,63.3748526 L146.371471,65.4158263 C146.461607,65.6988185 146.665513,65.775555 147.025684,65.6608369 L148.749364,65.1118287 C148.963752,65.0435441 149.088128,65.1078296 149.156412,65.3222176 L149.481447,66.3427045 C149.549732,66.5570925 149.485446,66.6814684 149.271058,66.749753 Z M152.571023,65.5597582 L151.252564,66.0154903 C151.039909,66.0889955 150.913999,66.0277697 150.840494,65.8151151 L148.93524,60.3031073 C148.861735,60.0904526 148.92296,59.9645423 149.135615,59.8910371 L150.454074,59.4353051 C150.666728,59.3617999 150.792639,59.4230256 150.866144,59.6356803 L151.504169,61.4815224 L152.924702,60.9905078 L152.286677,59.1446657 C152.213171,58.9320111 152.274397,58.8061008 152.487052,58.7325956 L153.80551,58.2768635 C154.018165,58.2033583 154.144075,58.2645841 154.217581,58.4772387 L156.122835,63.9892466 C156.19634,64.2019012 156.135114,64.3278115 155.92246,64.4013167 L154.604001,64.8570488 C154.391346,64.9305539 154.265436,64.8693282 154.191931,64.6566735 L153.539205,62.7683005 L152.118672,63.2593151 L152.771398,65.1476881 C152.844903,65.3603427 152.783677,65.4862531 152.571023,65.5597582 Z" id="CC3-Orig-R.-French-Copy" transform="translate(106.258698, 68.176235) rotate(15.000000) translate(-106.258698, -68.176235) "></path>
        </g>
        <g id="Title" transform="translate(127.000000, 176.000000)" fill="#EE4A73">
            <g id="Corner_vertical" transform="translate(189.000000, 0.000000)">
                <path d="M31.5992681,164.16418 C31.6846155,163.824746 31.5728171,163.637842 31.2333826,163.552494 L27.0379714,162.4976 C26.6985368,162.412253 26.5116328,162.524051 26.4262854,162.863486 L25.8971315,164.96798 C25.8117841,165.307415 25.9235824,165.494319 26.263017,165.579666 L28.3810887,166.112234 L28.0499408,167.42924 C27.94411,167.850139 27.6892408,168.002591 27.2276098,167.886519 L23.9826154,167.070598 C23.5209844,166.954525 23.3686103,166.641932 23.5119939,166.071682 L24.2220843,163.247587 C24.3074317,162.908152 24.1956333,162.721248 23.8561988,162.635901 L22.2133355,162.222819 C21.8739009,162.137472 21.6869969,162.24927 21.6016495,162.588705 L20.7481755,165.983051 C20.174641,168.264051 20.7908869,169.54499 22.6781431,170.019521 L26.9142864,171.084657 C28.8015426,171.559188 29.9503563,170.722056 30.5238909,168.441056 L31.5992681,164.16418 Z M30.9290743,152.649754 C32.6061299,152.973403 33.5741594,154.015719 32.9109438,157.452308 C32.2477282,160.888898 30.9587024,161.509891 29.2816469,161.186241 L24.5941392,160.281615 C22.9170837,159.957966 21.9379607,158.899251 22.6011763,155.462662 C23.2643919,152.026073 24.5645112,151.421479 26.2415667,151.745128 L30.9290743,152.649754 Z M29.3889778,157.970315 C29.7601294,158.041943 30.0668909,157.930044 30.257897,156.940306 C30.4515559,155.936822 30.2058103,155.732555 29.8346586,155.660928 L26.1368887,154.947308 C25.7794834,154.878333 25.4753748,154.976486 25.2817158,155.97997 C25.0907098,156.969708 25.3338025,157.187721 25.6912078,157.256695 L29.3889778,157.970315 Z M30.0547837,150.115489 L30.5434167,146.395443 C30.5889982,146.048424 30.4702463,145.877503 30.1093464,145.830098 L28.2493234,145.585782 C27.8884234,145.538377 27.7295599,145.672833 27.6839784,146.019852 L27.1953454,149.739898 C27.1497639,150.086917 27.2823966,150.259661 27.6294158,150.305243 L29.4894387,150.549559 C29.8503387,150.596964 30.0092022,150.462508 30.0547837,150.115489 Z M34.5659971,141.479206 C34.5990324,141.130768 34.4602554,140.96292 34.1118179,140.929885 L31.0176931,140.636532 L31.2383685,138.30897 L34.3324933,138.602322 C34.6809308,138.635358 34.8487788,138.496581 34.881814,138.148143 L35.0866325,135.987831 C35.1196677,135.639393 34.9808908,135.471545 34.6324533,135.43851 L25.600954,134.582237 C25.2525165,134.549202 25.0846685,134.687979 25.0516333,135.036416 L24.8468148,137.196728 C24.8137795,137.545166 24.9525565,137.713014 25.300994,137.746049 L28.3254313,138.032795 L28.1047559,140.360357 L25.0803186,140.073611 C24.7318811,140.040576 24.5640331,140.179353 24.5309979,140.527791 L24.3261794,142.688103 C24.2931441,143.03654 24.4319211,143.204388 24.7803586,143.237424 L33.8118579,144.093697 C34.1602954,144.126732 34.3281434,143.987955 34.3611786,143.639518 L34.5659971,141.479206 Z M35.201767,125.85964 C35.2132302,125.509828 35.0643566,125.350866 34.7145444,125.339403 L33.0774231,125.285755 C32.7276109,125.274292 32.5686497,125.423166 32.5571865,125.772978 L32.4306328,129.634905 L31.2272787,129.595472 L31.3166917,126.866936 C31.3281549,126.517124 31.1792813,126.358163 30.8294691,126.3467 L29.3322727,126.297637 C28.9824605,126.286174 28.8234993,126.435047 28.8120361,126.78486 L28.7226232,129.513395 L27.6452015,129.478088 L27.7717552,125.616161 C27.7832184,125.266349 27.6343449,125.107388 27.2845326,125.095925 L25.6474114,125.042277 C25.2975992,125.030814 25.138638,125.179687 25.1271748,125.5295 L24.9144178,132.022015 C24.9029546,132.371827 25.0518282,132.530788 25.4016404,132.542251 L34.4687734,132.839377 C34.8185856,132.850841 34.9775468,132.701967 34.98901,132.352155 L35.201767,125.85964 Z M27.7693769,119.513403 L29.9102751,120.128141 L29.8657296,117.930592 L27.751502,118.631584 C27.5849551,118.704974 27.5166719,118.790376 27.5189417,118.902353 L27.5260349,119.252281 C27.5283048,119.364258 27.5999928,119.446822 27.7693769,119.513403 Z M34.4201866,120.176751 C34.7701147,120.169658 34.9272041,120.320505 34.9342973,120.670433 L34.9760055,122.728011 C34.9830988,123.077939 34.8322514,123.235028 34.4823233,123.242121 L30.7870824,123.317026 C30.2271974,123.328375 29.5239364,123.174596 28.536477,122.816535 L25.3344453,121.663192 C25.0102416,121.55774 24.8657306,121.336624 24.8580699,120.958701 L24.7817467,117.193475 C24.7743698,116.82955 24.9098013,116.602758 25.2294654,116.484256 L28.3821282,115.202099 C29.3542662,114.804316 30.0507177,114.622164 30.6106027,114.610815 L34.3058436,114.53591 C34.6557717,114.528817 34.8128611,114.679664 34.8199543,115.029592 L34.8627975,117.143158 C34.8704582,117.52108 34.7198946,117.692167 34.3699664,117.69926 L32.410369,117.738982 L32.4605891,120.216473 L34.4201866,120.176751 Z M33.7978934,104.52579 L34.3515254,111.630251 C34.3787176,111.979193 34.2371476,112.144692 33.8882055,112.171884 L24.8436263,112.876705 C24.4946842,112.903897 24.3291852,112.762327 24.301993,112.413385 L24.1334018,110.249944 C24.1062096,109.901001 24.2477796,109.735502 24.5967217,109.70831 L31.5057752,109.169906 L31.3567623,107.257703 L29.0956175,107.433908 C28.7466754,107.4611 28.5811763,107.31953 28.5539842,106.970588 L28.3962698,104.946724 C28.3690776,104.597782 28.5106476,104.432283 28.8595897,104.405091 L33.2562601,104.06247 C33.6052022,104.035278 33.7707013,104.176848 33.7978934,104.52579 Z M32.7854226,98.0329001 L33.0705,100.282912 C33.1144934,100.630136 32.9810719,100.802272 32.6338478,100.846266 L25.8143663,101.710296 L26.0730476,103.751974 C26.117041,104.099198 25.9836195,104.271334 25.6363954,104.315327 L23.9558308,104.528255 C23.6086067,104.572249 23.436471,104.438827 23.3924775,104.091603 L22.4633366,96.75823 C22.4193432,96.4110059 22.5527647,96.2388702 22.8999888,96.1948768 L24.5805534,95.9819487 C24.9277776,95.9379552 25.0999133,96.0713767 25.1439067,96.4186008 L25.402588,98.4602786 L32.2220694,97.5962479 C32.5692935,97.5522545 32.7414292,97.685676 32.7854226,98.0329001 Z M30.8451755,90.4650972 C30.7638884,90.1246674 30.578333,90.0106446 30.2379033,90.0919317 L27.2148872,90.8137611 L26.6718894,88.5396904 L29.6949055,87.8178611 C30.0353353,87.736574 30.149358,87.5510186 30.0680709,87.2105888 L29.564091,85.0999244 C29.4828039,84.7594947 29.2972485,84.6454719 28.9568188,84.726759 L20.1328799,86.8337203 C19.7924501,86.9150074 19.6784273,87.1005628 19.7597144,87.4409926 L20.2636944,89.551657 C20.3449815,89.8920867 20.5305369,90.0061095 20.8709666,89.9248224 L23.8258968,89.2192505 L24.3688945,91.4933211 L21.4139644,92.1988931 C21.0735346,92.2801802 20.9595119,92.4657356 21.0407989,92.8061653 L21.5447789,94.9168297 C21.626066,95.2572594 21.8116214,95.3712822 22.1520511,95.2899951 L30.97599,93.1830338 C31.3164198,93.1017467 31.4304425,92.9161913 31.3491555,92.5757616 L30.8451755,90.4650972 Z" id="title-copy-3"></path>
            </g>
        </g>
    </g>
</svg>